<?xml version="1.0" encoding="utf-8"?>
<!-- Generator: Adobe Illustrator 25.4.1, SVG Export Plug-In . SVG Version: 6.00 Build 0)  -->
<svg version="1.1" id="Layer_1" xmlns="http://www.w3.org/2000/svg" xmlns:xlink="http://www.w3.org/1999/xlink" x="0px" y="0px"
	 viewBox="0 0 564.1 103.5" style="enable-background:new 0 0 564.1 103.5;" xml:space="preserve">
<style type="text/css">
	.st0{fill:#F7BA89;}
</style>
<g>
	<path class="st0" d="M31.7,73.3c-1.1-4.1-6.2-10.4-13.3-13.3c-7.1-3-14-2.1-15.4,1.7C1.6,65.4,7.2,71.8,6.6,76
		c-0.5,4.3-4.5,9.8-2.5,14.9c1.9,5.1,15.5,1,20.9-3C30.5,84,33.5,79.8,31.7,73.3z"/>
	<path class="st0" d="M38.1,99.9c1.8-2.2,0.5-5.9-2.7-8.2c-3.3-2.3-7.3-2.4-9.1-0.2c-1.8,2.2-0.6,5.9,2.7,8.2
		C32.3,102.1,36.4,102.1,38.1,99.9z"/>
	<path class="st0" d="M34.4,68.6c1.1,3.5,6.1,5.1,11.2,3.4c5.1-1.6,8.2-5.8,7.1-9.2c-1.1-3.4-6.1-4.9-11.1-3.2
		C36.6,61.3,33.4,65.2,34.4,68.6z"/>
	<path class="st0" d="M34.2,58.4c3-2.5,3.9-6.4,2.1-8.4c-1.9-2-5.8-1.7-8.9,0.8c-3,2.5-4,6.3-2.1,8.3C27.2,61.2,31.2,60.9,34.2,58.4
		z"/>
	<path class="st0" d="M42.8,89.9c5.2,0.9,10.1-1.2,10.9-4.8c0.8-3.6-2.8-7.2-8-8.1c-5.2-0.9-10.1,1.1-10.9,4.6
		C34,85,37.6,88.8,42.8,89.9z"/>
</g>
<g>
	<path class="st0" d="M234.1,73.3c-1.1-4.1-6.2-10.4-13.3-13.3c-7.1-3-14-2.1-15.4,1.7c-1.4,3.8,4.1,10.1,3.6,14.4
		c-0.5,4.3-4.5,9.8-2.5,14.9c1.9,5.1,15.5,1,20.9-3C232.8,84,235.8,79.8,234.1,73.3z"/>
	<path class="st0" d="M240.5,99.9c1.8-2.2,0.5-5.9-2.7-8.2c-3.3-2.3-7.3-2.4-9.1-0.2c-1.8,2.2-0.6,5.9,2.7,8.2
		C234.6,102.1,238.7,102.1,240.5,99.9z"/>
	<path class="st0" d="M236.8,68.6c1.1,3.5,6.1,5.1,11.2,3.4c5.1-1.6,8.2-5.8,7.1-9.2c-1.1-3.4-6.1-4.9-11.1-3.2
		C238.9,61.3,235.7,65.2,236.8,68.6z"/>
	<path class="st0" d="M236.6,58.4c3-2.5,3.9-6.4,2.1-8.4c-1.9-2-5.8-1.7-8.9,0.8c-3,2.5-4,6.3-2.1,8.3
		C229.5,61.2,233.5,60.9,236.6,58.4z"/>
	<path class="st0" d="M245.2,89.9c5.2,0.9,10.1-1.2,10.9-4.8c0.8-3.6-2.8-7.2-8-8.1c-5.2-0.9-10.1,1.1-10.9,4.6
		C236.4,85,239.9,88.8,245.2,89.9z"/>
</g>
<g>
	<path class="st0" d="M439.4,73.3c-1.1-4.1-6.2-10.4-13.3-13.3c-7.1-3-14-2.1-15.4,1.7c-1.4,3.8,4.1,10.1,3.6,14.4
		c-0.5,4.3-4.5,9.8-2.5,14.9c1.9,5.1,15.5,1,20.9-3C438.1,84,441.1,79.8,439.4,73.3z"/>
	<path class="st0" d="M445.8,99.9c1.8-2.2,0.5-5.9-2.7-8.2c-3.3-2.3-7.3-2.4-9.1-0.2c-1.8,2.2-0.6,5.9,2.7,8.2
		C439.9,102.1,444,102.1,445.8,99.9z"/>
	<path class="st0" d="M442.1,68.6c1.1,3.5,6.1,5.1,11.2,3.4c5.1-1.6,8.2-5.8,7.1-9.2c-1.1-3.4-6.1-4.9-11.1-3.2
		C444.2,61.3,441,65.2,442.1,68.6z"/>
	<path class="st0" d="M441.9,58.4c3-2.5,3.9-6.4,2.1-8.4c-1.9-2-5.8-1.7-8.9,0.8c-3,2.5-4,6.3-2.1,8.3
		C434.8,61.2,438.8,60.9,441.9,58.4z"/>
	<path class="st0" d="M450.5,89.9c5.2,0.9,10.1-1.2,10.9-4.8c0.8-3.6-2.8-7.2-8-8.1c-5.2-0.9-10.1,1.1-10.9,4.6
		C441.7,85,445.2,88.8,450.5,89.9z"/>
</g>
<g>
	<path class="st0" d="M130.5,27.2c-1.1-4.1-6.2-10.4-13.3-13.3c-7.1-3-14-2.1-15.4,1.7c-1.4,3.8,4.1,10.1,3.6,14.4
		c-0.5,4.3-4.5,9.8-2.5,14.9c1.9,5.1,15.5,1,20.9-3C129.2,37.9,132.3,33.7,130.5,27.2z"/>
	<path class="st0" d="M136.9,53.8c1.8-2.2,0.5-5.9-2.7-8.2c-3.3-2.3-7.3-2.4-9.1-0.2c-1.8,2.2-0.6,5.9,2.7,8.2
		C131,55.9,135.1,56,136.9,53.8z"/>
	<path class="st0" d="M133.2,22.5c1.1,3.5,6.1,5.1,11.2,3.4c5.1-1.6,8.2-5.8,7.1-9.2c-1.1-3.4-6.1-4.9-11.1-3.2
		C135.3,15.1,132.1,19,133.2,22.5z"/>
	<path class="st0" d="M133,12.2c3-2.5,3.9-6.4,2.1-8.4c-1.9-2-5.8-1.7-8.9,0.8c-3,2.5-4,6.3-2.1,8.3C126,15.1,130,14.7,133,12.2z"/>
	<path class="st0" d="M141.6,43.7c5.2,0.9,10.1-1.2,10.9-4.8c0.8-3.6-2.8-7.2-8-8.1c-5.2-0.9-10.1,1.1-10.9,4.6
		C132.8,38.9,136.4,42.7,141.6,43.7z"/>
</g>
<g>
	<path class="st0" d="M338.7,27.2c-1.1-4.1-6.2-10.4-13.3-13.3c-7.1-3-14-2.1-15.4,1.7c-1.4,3.8,4.1,10.1,3.6,14.4
		c-0.5,4.3-4.5,9.8-2.5,14.9c1.9,5.1,15.5,1,20.9-3C337.5,37.9,340.5,33.7,338.7,27.2z"/>
	<path class="st0" d="M345.1,53.8c1.8-2.2,0.5-5.9-2.7-8.2c-3.3-2.3-7.3-2.4-9.1-0.2c-1.8,2.2-0.6,5.9,2.7,8.2
		C339.3,55.9,343.4,56,345.1,53.8z"/>
	<path class="st0" d="M341.4,22.5c1.1,3.5,6.1,5.1,11.2,3.4c5.1-1.6,8.2-5.8,7.1-9.2c-1.1-3.4-6.1-4.9-11.1-3.2
		C343.6,15.1,340.4,19,341.4,22.5z"/>
	<path class="st0" d="M341.2,12.2c3-2.5,3.9-6.4,2.1-8.4c-1.9-2-5.8-1.7-8.9,0.8c-3,2.5-4,6.3-2.1,8.3
		C334.2,15.1,338.2,14.7,341.2,12.2z"/>
	<path class="st0" d="M349.8,43.7c5.2,0.9,10.1-1.2,10.9-4.8c0.8-3.6-2.8-7.2-8-8.1c-5.2-0.9-10.1,1.1-10.9,4.6
		C341,38.9,344.6,42.7,349.8,43.7z"/>
</g>
<g>
	<path class="st0" d="M538.1,27.2c-1.1-4.1-6.2-10.4-13.3-13.3c-7.1-3-14-2.1-15.4,1.7c-1.4,3.8,4.1,10.1,3.6,14.4
		c-0.5,4.3-4.5,9.8-2.5,14.9c1.9,5.1,15.5,1,20.9-3C536.9,37.9,539.9,33.7,538.1,27.2z"/>
	<path class="st0" d="M544.5,53.8c1.8-2.2,0.5-5.9-2.7-8.2c-3.3-2.3-7.3-2.4-9.1-0.2c-1.8,2.2-0.6,5.9,2.7,8.2
		C538.7,55.9,542.8,56,544.5,53.8z"/>
	<path class="st0" d="M540.8,22.5c1.1,3.5,6.1,5.1,11.2,3.4c5.1-1.6,8.2-5.8,7.1-9.2c-1.1-3.4-6.1-4.9-11.1-3.2
		C543,15.1,539.7,19,540.8,22.5z"/>
	<path class="st0" d="M540.6,12.2c3-2.5,3.9-6.4,2.1-8.4c-1.9-2-5.8-1.7-8.9,0.8c-3,2.5-4,6.3-2.1,8.3
		C533.6,15.1,537.6,14.7,540.6,12.2z"/>
	<path class="st0" d="M549.2,43.7c5.2,0.9,10.1-1.2,10.9-4.8c0.8-3.6-2.8-7.2-8-8.1c-5.2-0.9-10.1,1.1-10.9,4.6
		C540.4,38.9,544,42.7,549.2,43.7z"/>
</g>
</svg>
